<?xml version="1.0" encoding="UTF-8"?>
<!DOCTYPE svg PUBLIC "-//W3C//DTD SVG 1.1//EN" "http://www.w3.org/Graphics/SVG/1.1/DTD/svg11.dtd">
<svg xmlns="http://www.w3.org/2000/svg" version="1.1" width="512px" height="512px" style="shape-rendering:geometricPrecision; text-rendering:geometricPrecision; image-rendering:optimizeQuality; fill-rule:evenodd; clip-rule:evenodd" xmlns:xlink="http://www.w3.org/1999/xlink">
<g><path style="opacity:0.98" fill="#010101" d="M 511.5,411.5 C 511.5,417.167 511.5,422.833 511.5,428.5C 503.622,448.439 489.288,455.606 468.5,450C 458.243,444.065 451.243,435.398 447.5,424C 398.501,423.5 349.501,423.333 300.5,423.5C 300.5,433.833 300.5,444.167 300.5,454.5C 316.837,454.333 333.17,454.5 349.5,455C 362.459,457.958 370.959,465.791 375,478.5C 376.397,485.452 376.73,492.452 376,499.5C 374.771,504.814 371.605,508.314 366.5,510C 322.5,510.167 278.5,510.333 234.5,510.5C 189.442,510.659 144.442,510.159 99.5,509C 97.2911,507.127 95.4578,504.96 94,502.5C 93.3333,494.833 93.3333,487.167 94,479.5C 97.6017,466.232 106.102,458.065 119.5,455C 135.83,454.5 152.163,454.333 168.5,454.5C 168.5,444.167 168.5,433.833 168.5,423.5C 117.832,423.667 67.1656,423.5 16.5,423C 8.48555,420.812 2.81888,415.979 -0.5,408.5C -0.5,297.5 -0.5,186.5 -0.5,75.5C 2.31434,69.1873 6.98101,64.6873 13.5,62C 86.1667,61.6667 158.833,61.3333 231.5,61C 227.57,55.4084 224.07,49.5751 221,43.5C 220.119,37.5056 222.286,33.0056 227.5,30C 235.092,27.1361 242.758,24.4694 250.5,22C 255.457,15.3737 260.791,9.04035 266.5,3C 271.5,-0.333333 276.5,-0.333333 281.5,3C 287.209,9.04035 292.543,15.3737 297.5,22C 306.781,24.5346 315.614,28.0346 324,32.5C 326.407,35.7952 327.407,39.4619 327,43.5C 323.93,49.5751 320.43,55.4084 316.5,61C 329.846,61.8327 343.179,61.666 356.5,60.5C 358.363,56.47 361.363,53.6367 365.5,52C 376.577,48.1968 387.577,44.1968 398.5,40C 405.79,30.108 413.79,20.7747 422.5,12C 427.5,8.66667 432.5,8.66667 437.5,12C 445.737,21.1471 453.737,30.4804 461.5,40C 473.911,44.4702 486.244,49.1369 498.5,54C 503.15,58.5744 504.65,64.0744 503,70.5C 496.83,80.844 490.163,90.844 483,100.5C 482.368,112.835 481.702,125.169 481,137.5C 479,142.167 475.667,145.5 471,147.5C 470.333,206.833 470.333,266.167 471,325.5C 484.827,354.147 498.327,382.814 511.5,411.5 Z"/></g>
<g><path style="opacity:1" fill="#fcd56a" d="M 279.5,25.5 C 283.403,43.199 283.403,60.8657 279.5,78.5C 278.5,78.5 277.5,78.5 276.5,78.5C 268.087,79.6858 259.754,81.3525 251.5,83.5C 251.666,76.4921 251.5,69.4921 251,62.5C 247.33,55.8242 243.164,49.4909 238.5,43.5C 238.709,42.914 239.043,42.414 239.5,42C 246.242,39.8639 252.909,37.5305 259.5,35C 264.333,29.5 269.167,24 274,18.5C 276.43,20.4221 278.263,22.7554 279.5,25.5 Z"/></g>
<g><path style="opacity:1" fill="#fabe63" d="M 279.5,25.5 C 282.368,28.6879 285.368,31.8546 288.5,35C 295.574,37.7445 302.574,40.5778 309.5,43.5C 304.836,49.4909 300.67,55.8242 297,62.5C 296.5,69.4921 296.334,76.4921 296.5,83.5C 289.646,82.12 282.98,80.4533 276.5,78.5C 277.5,78.5 278.5,78.5 279.5,78.5C 283.403,60.8657 283.403,43.199 279.5,25.5 Z"/></g>
<g><path style="opacity:1" fill="#fdd66b" d="M 435.5,33.5 C 442.659,63.6959 443.326,94.0293 437.5,124.5C 433.51,123.81 429.51,123.643 425.5,124C 414.971,127.132 404.305,129.632 393.5,131.5C 393.622,119.475 393.122,107.475 392,95.5C 385.5,85.8333 379,76.1667 372.5,66.5C 383.685,62.0482 395.018,57.8816 406.5,54C 414.333,44.8333 422.167,35.6667 430,26.5C 431.842,28.8636 433.675,31.1969 435.5,33.5 Z"/></g>
<g><path style="opacity:1" fill="#fbbf64" d="M 435.5,33.5 C 441.262,40.4364 447.262,47.2697 453.5,54C 464.804,58.2679 476.138,62.4346 487.5,66.5C 480.17,76.4903 473.337,86.8236 467,97.5C 466.5,108.828 466.333,120.162 466.5,131.5C 456.625,129.948 446.958,127.614 437.5,124.5C 443.326,94.0293 442.659,63.6959 435.5,33.5 Z"/></g>
<g><path style="opacity:1" fill="#00bef8" d="M 318.5,76.5 C 339.184,100.52 354.184,127.854 363.5,158.5C 349.828,164.841 344.328,175.508 347,190.5C 356.211,213.301 365.711,235.968 375.5,258.5C 374.748,295.507 366.748,330.84 351.5,364.5C 239.167,364.5 126.833,364.5 14.5,364.5C 14.3333,269.499 14.5,174.499 15,79.5C 15.8333,78.6667 16.6667,77.8333 17.5,77C 90.4992,76.5 163.499,76.3333 236.5,76.5C 235.872,82.7624 236.705,88.7624 239,94.5C 241.54,97.3534 244.707,99.0201 248.5,99.5C 256.943,97.2643 265.443,95.2643 274,93.5C 282.112,95.7363 290.278,97.7363 298.5,99.5C 303.704,99.3188 307.538,96.9855 310,92.5C 311.271,87.2461 311.771,81.9127 311.5,76.5C 313.833,76.5 316.167,76.5 318.5,76.5 Z"/></g>
<g><path style="opacity:1" fill="#07a7ef" d="M 318.5,76.5 C 333.079,76.1763 347.579,76.5096 362,77.5C 367.333,85.5 372.667,93.5 378,101.5C 378.333,112.833 378.667,124.167 379,135.5C 382.032,145.104 388.532,148.604 398.5,146C 408.949,143.263 419.449,140.763 430,138.5C 438.101,140.734 446.268,142.734 454.5,144.5C 454.832,193.336 454.499,242.003 453.5,290.5C 434.62,250.405 415.453,210.405 396,170.5C 387.645,159.661 376.812,155.661 363.5,158.5C 354.184,127.854 339.184,100.52 318.5,76.5 Z"/></g>
<g><path style="opacity:1" fill="#020506" d="M 141.5,107.5 C 131.833,107.5 122.167,107.5 112.5,107.5C 112.5,117.167 112.5,126.833 112.5,136.5C 111.488,139.853 109.154,141.52 105.5,141.5C 102.426,141.55 100.259,140.217 99,137.5C 98.3333,123.833 98.3333,110.167 99,96.5C 100.214,94.9512 101.714,93.7845 103.5,93C 116.167,92.3333 128.833,92.3333 141.5,93C 149.467,97.9734 149.467,102.807 141.5,107.5 Z"/></g>
<g><path style="opacity:1" fill="#005974" d="M 141.5,107.5 C 132.348,108.494 123.015,108.827 113.5,108.5C 113.827,118.015 113.494,127.348 112.5,136.5C 112.5,126.833 112.5,117.167 112.5,107.5C 122.167,107.5 131.833,107.5 141.5,107.5 Z"/></g>
<g><path style="opacity:1" fill="#030504" d="M 136.5,124.5 C 196.501,124.333 256.501,124.5 316.5,125C 318.624,126.122 320.457,127.622 322,129.5C 322.667,189.5 322.667,249.5 322,309.5C 321.215,311.286 320.049,312.786 318.5,314C 257.916,315.659 197.249,315.992 136.5,315C 135.333,313.833 134.167,312.667 133,311.5C 131.341,250.916 131.008,190.249 132,129.5C 133.707,127.963 135.207,126.296 136.5,124.5 Z"/></g>
<g><path style="opacity:1" fill="#c7eefd" d="M 231.5,139.5 C 247.388,158.423 259.055,179.756 266.5,203.5C 264.407,204.045 262.407,204.878 260.5,206C 246.319,220.347 231.986,234.514 217.5,248.5C 205.985,237.818 194.985,226.651 184.5,215C 178.395,210.353 171.729,209.353 164.5,212C 158.667,217.833 152.833,223.667 147,229.5C 146.5,199.502 146.333,169.502 146.5,139.5C 174.833,139.5 203.167,139.5 231.5,139.5 Z"/></g>
<g><path style="opacity:1" fill="#98e5fb" d="M 231.5,139.5 C 256.833,139.5 282.167,139.5 307.5,139.5C 307.667,170.835 307.5,202.168 307,233.5C 297.833,224.333 288.667,215.167 279.5,206C 275.414,203.947 271.08,203.113 266.5,203.5C 259.055,179.756 247.388,158.423 231.5,139.5 Z"/></g>
<g><path style="opacity:1" fill="#022332" d="M 454.5,144.5 C 455.665,193.665 455.832,242.998 455,292.5C 454.283,291.956 453.783,291.289 453.5,290.5C 454.499,242.003 454.832,193.336 454.5,144.5 Z"/></g>
<g><path style="opacity:1" fill="#f8bd63" d="M 391.5,219.5 C 388.627,212.082 385.46,204.749 382,197.5C 379.065,190.104 374.565,183.937 368.5,179C 366.655,177.872 364.655,177.372 362.5,177.5C 367.294,171.856 372.96,171.023 379.5,175C 381,176.5 382.5,178 384,179.5C 389.909,190.818 395.409,202.318 400.5,214C 397.835,216.335 394.835,218.168 391.5,219.5 Z"/></g>
<g><path style="opacity:1" fill="#fcd56a" d="M 362.5,177.5 C 364.655,177.372 366.655,177.872 368.5,179C 374.565,183.937 379.065,190.104 382,197.5C 385.46,204.749 388.627,212.082 391.5,219.5C 387.073,221.212 382.74,223.212 378.5,225.5C 372.346,213.903 366.846,201.903 362,189.5C 361.238,185.413 361.404,181.413 362.5,177.5 Z"/></g>
<g><path style="opacity:1" fill="#7ed060" d="M 271.5,219.5 C 278.11,246.483 278.11,273.483 271.5,300.5C 257.036,287.205 242.703,273.705 228.5,260C 241.471,246.029 254.804,232.362 268.5,219C 269.749,218.26 270.749,218.427 271.5,219.5 Z"/></g>
<g><path style="opacity:1" fill="#67c943" d="M 271.5,219.5 C 283.465,230.965 295.298,242.631 307,254.5C 307.5,269.83 307.667,285.163 307.5,300.5C 295.5,300.5 283.5,300.5 271.5,300.5C 278.11,273.483 278.11,246.483 271.5,219.5 Z"/></g>
<g><path style="opacity:1" fill="#7fd160" d="M 182.5,235.5 C 190.532,256.386 194.199,278.053 193.5,300.5C 177.833,300.5 162.167,300.5 146.5,300.5C 146.333,283.83 146.5,267.163 147,250.5C 155.348,241.986 163.848,233.652 172.5,225.5C 176.188,228.521 179.521,231.854 182.5,235.5 Z"/></g>
<g><path style="opacity:1" fill="#778a95" d="M 489.5,433.5 C 490.01,427.928 489.177,422.595 487,417.5C 458.333,357.5 429.667,297.5 401,237.5C 400.502,235.456 399.335,234.122 397.5,233.5C 400.276,231.608 403.276,229.941 406.5,228.5C 436.495,289.16 465.995,350.16 495,411.5C 498.307,420.24 496.473,427.573 489.5,433.5 Z"/></g>
<g><path style="opacity:1" fill="#8b99a5" d="M 397.5,233.5 C 399.335,234.122 400.502,235.456 401,237.5C 429.667,297.5 458.333,357.5 487,417.5C 489.177,422.595 490.01,427.928 489.5,433.5C 480.618,438.717 473.118,437.05 467,428.5C 439.295,365.593 411.462,302.759 383.5,240C 388.038,237.565 392.704,235.398 397.5,233.5 Z"/></g>
<g><path style="opacity:1" fill="#67c843" d="M 182.5,235.5 C 204.196,257.197 226.196,278.53 248.5,299.5C 230.341,300.497 212.008,300.83 193.5,300.5C 194.199,278.053 190.532,256.386 182.5,235.5 Z"/></g>
<g><path style="opacity:1" fill="#07a7ef" d="M 375.5,258.5 C 390.988,293.651 406.654,328.818 422.5,364C 398.836,364.5 375.169,364.667 351.5,364.5C 366.748,330.84 374.748,295.507 375.5,258.5 Z"/></g>
<g><path style="opacity:1" fill="#020406" d="M 312.5,332.5 C 322.167,332.5 331.833,332.5 341.5,332.5C 341.5,322.833 341.5,313.167 341.5,303.5C 342.348,300.155 344.515,298.488 348,298.5C 351.274,298.301 353.607,299.634 355,302.5C 355.964,316.594 355.631,330.594 354,344.5C 353.097,345.701 351.931,346.535 350.5,347C 337.833,347.667 325.167,347.667 312.5,347C 307.776,344.565 306.276,340.731 308,335.5C 309.129,333.859 310.629,332.859 312.5,332.5 Z"/></g>
<g><path style="opacity:1" fill="#254319" d="M 248.5,299.5 C 249.043,299.56 249.376,299.893 249.5,300.5C 215.002,301.83 180.669,301.83 146.5,300.5C 162.167,300.5 177.833,300.5 193.5,300.5C 212.008,300.83 230.341,300.497 248.5,299.5 Z"/></g>
<g><path style="opacity:1" fill="#006685" d="M 341.5,303.5 C 341.5,313.167 341.5,322.833 341.5,332.5C 331.833,332.5 322.167,332.5 312.5,332.5C 321.652,331.506 330.985,331.173 340.5,331.5C 340.173,321.985 340.506,312.652 341.5,303.5 Z"/></g>
<g><path style="opacity:1" fill="#c7eefd" d="M 343.5,379.5 C 337.999,389.173 331.999,398.506 325.5,407.5C 223.5,407.5 121.5,407.5 19.5,407.5C 17.629,407.141 16.129,406.141 15,404.5C 14.5003,396.173 14.3336,387.84 14.5,379.5C 124.167,379.5 233.833,379.5 343.5,379.5 Z"/></g>
<g><path style="opacity:1" fill="#98e5fb" d="M 343.5,379.5 C 372.174,379.167 400.841,379.5 429.5,380.5C 433.179,389.188 436.846,397.855 440.5,406.5C 402.337,407.499 364.004,407.832 325.5,407.5C 331.999,398.506 337.999,389.173 343.5,379.5 Z"/></g>
<g><path style="opacity:1" fill="#3f4f54" d="M 440.5,406.5 C 441.043,406.56 441.376,406.893 441.5,407.5C 300.667,408.833 160.001,408.833 19.5,407.5C 121.5,407.5 223.5,407.5 325.5,407.5C 364.004,407.832 402.337,407.499 440.5,406.5 Z"/></g>
<g><path style="opacity:1" fill="#818181" d="M 184.5,423.5 C 184.5,423.167 184.5,422.833 184.5,422.5C 218.167,422.5 251.833,422.5 285.5,422.5C 285.5,433.167 285.5,443.833 285.5,454.5C 285.167,454.5 284.833,454.5 284.5,454.5C 284.5,444.167 284.5,433.833 284.5,423.5C 251.167,423.5 217.833,423.5 184.5,423.5 Z"/></g>
<g><path style="opacity:1" fill="#bebebe" d="M 184.5,423.5 C 217.833,423.5 251.167,423.5 284.5,423.5C 284.5,433.833 284.5,444.167 284.5,454.5C 280.167,454.5 275.833,454.5 271.5,454.5C 271.666,449.156 271.499,443.823 271,438.5C 269.829,437.107 268.329,436.273 266.5,436C 239.169,435.5 211.835,435.333 184.5,435.5C 184.5,431.5 184.5,427.5 184.5,423.5 Z"/></g>
<g><path style="opacity:1" fill="#cdcdcd" d="M 184.5,435.5 C 211.835,435.333 239.169,435.5 266.5,436C 268.329,436.273 269.829,437.107 271,438.5C 271.499,443.823 271.666,449.156 271.5,454.5C 242.5,454.5 213.5,454.5 184.5,454.5C 184.5,448.167 184.5,441.833 184.5,435.5 Z"/></g>
<g><path style="opacity:1" fill="#616161" d="M 184.5,422.5 C 184.5,422.833 184.5,423.167 184.5,423.5C 184.5,427.5 184.5,431.5 184.5,435.5C 184.5,441.833 184.5,448.167 184.5,454.5C 213.5,454.5 242.5,454.5 271.5,454.5C 275.833,454.5 280.167,454.5 284.5,454.5C 284.833,454.5 285.167,454.5 285.5,454.5C 251.671,455.498 217.671,455.832 183.5,455.5C 183.172,444.321 183.505,433.321 184.5,422.5 Z"/></g>
<g><path style="opacity:1" fill="#e1e1e1" d="M 122.5,470.5 C 178.501,470.333 234.501,470.5 290.5,471C 295.9,477.903 297.9,485.736 296.5,494.5C 233.833,494.5 171.167,494.5 108.5,494.5C 106.693,484.964 109.693,477.464 117.5,472C 119.025,470.991 120.692,470.491 122.5,470.5 Z"/></g>
<g><path style="opacity:1" fill="#bababa" d="M 122.5,470.5 C 196.666,469.334 270.999,469.168 345.5,470C 358.128,473.833 363.128,482.333 360.5,495.5C 276.332,495.833 192.332,495.499 108.5,494.5C 171.167,494.5 233.833,494.5 296.5,494.5C 297.9,485.736 295.9,477.903 290.5,471C 234.501,470.5 178.501,470.333 122.5,470.5 Z"/></g>
</svg>
