<svg width="25" height="25" viewBox="0 0 25 25" fill="none" xmlns="http://www.w3.org/2000/svg">
<path d="M15.375 1H3.875C3.1125 1 2.38123 1.24232 1.84207 1.67365C1.3029 2.10499 1 2.69 1 3.3V21.7C1 22.31 1.3029 22.895 1.84207 23.3263C2.38123 23.7577 3.1125 24 3.875 24H21.125C21.8875 24 22.6188 23.7577 23.1579 23.3263C23.6971 22.895 24 22.31 24 21.7V7.9M15.375 1L24 7.9M15.375 1V7.9H24M18.25 13.65H6.75M18.25 18.25H6.75M9.625 9.05H6.75" stroke="#CCCCCC" stroke-width="2" stroke-linecap="round" stroke-linejoin="round"/>
</svg>
