<svg width="22" height="28" viewBox="5 2 22 28" fill="none" xmlns="http://www.w3.org/2000/svg">
  <path d="M26.6938 9.58125L19.1031 2.27813C18.9156 2.1 18.6687 2 18.4094 2H9.25C9.1125 2 9 2.1125 9 2.25V4C9 4.1375 9.1125 4.25 9.25 4.25H17.9062L24.75 10.8313V25.75C24.75 25.8875 24.8625 26 25 26H26.75C26.8875 26 27 25.8875 27 25.75V10.3C27 10.0281 26.8906 9.76875 26.6938 9.58125Z" fill="#000000"/>
  <path d="M17.2938 6.29375C17.1063 6.10625 16.8531 6 16.5875 6H6C5.44687 6 5 6.44687 5 7V29C5 29.5531 5.44687 30 6 30H22C22.5531 30 23 29.5531 23 29V12.4156C23 12.15 22.8937 11.8969 22.7062 11.7094L17.2938 6.29375ZM20.75 27.75H7.25V8.25H16.0688L20.75 12.9312V27.75Z" fill="#000000"/>
  <path d="M14.875 12.4719C14.875 12.35 14.7781 12.25 14.6562 12.25H13.3438C13.225 12.25 13.125 12.35 13.125 12.4719V15.125H10.4844C10.3563 15.125 10.25 15.2219 10.25 15.3438V16.6562C10.25 16.775 10.3563 16.875 10.4844 16.875H13.125V19.5281C13.125 19.65 13.225 19.75 13.3438 19.75H14.6562C14.7781 19.75 14.875 19.65 14.875 19.5281V16.875H17.5156C17.6437 16.875 17.75 16.775 17.75 16.6562V15.3438C17.75 15.2219 17.6437 15.125 17.5156 15.125H14.875V12.4719ZM17.5156 22H10.4844C10.3563 22 10.25 22.1 10.25 22.2188V23.5312C10.25 23.65 10.3563 23.75 10.4844 23.75H17.5156C17.6437 23.75 17.75 23.65 17.75 23.5312V22.2188C17.75 22.1 17.6437 22 17.5156 22Z" fill="#000000"/>
</svg>
