<svg width="25" height="26" viewBox="0 0 25 26" fill="none" xmlns="http://www.w3.org/2000/svg">
<path d="M24 24.5L21.51 22.01M21.51 22.01C22.1603 21.3596 22.5625 20.4612 22.5625 19.4688C22.5625 17.484 20.9535 15.875 18.9688 15.875C16.984 15.875 15.375 17.484 15.375 19.4688C15.375 21.4535 16.984 23.0625 18.9688 23.0625C19.9612 23.0625 20.8596 22.6603 21.51 22.01ZM17.675 10.125H21.7C22.5051 10.125 22.9076 10.125 23.2151 9.96833C23.4857 9.8305 23.7055 9.61059 23.8433 9.34011C24 9.03261 24 8.63007 24 7.825V3.8C24 2.99493 24 2.59239 23.8433 2.28489C23.7055 2.01441 23.4857 1.7945 23.2151 1.65667C22.9076 1.5 22.5051 1.5 21.7 1.5H17.675C16.8699 1.5 16.4674 1.5 16.1599 1.65667C15.8893 1.7945 15.6695 2.01441 15.5317 2.28489C15.375 2.59239 15.375 2.99493 15.375 3.8V7.825C15.375 8.63007 15.375 9.03261 15.5317 9.34011C15.6695 9.61059 15.8893 9.8305 16.1599 9.96833C16.4674 10.125 16.8699 10.125 17.675 10.125ZM3.3 10.125H7.325C8.13007 10.125 8.53261 10.125 8.84011 9.96833C9.11059 9.8305 9.3305 9.61059 9.46833 9.34011C9.625 9.03261 9.625 8.63007 9.625 7.825V3.8C9.625 2.99493 9.625 2.59239 9.46833 2.28489C9.3305 2.01441 9.11059 1.7945 8.84011 1.65667C8.53261 1.5 8.13007 1.5 7.325 1.5H3.3C2.49493 1.5 2.09239 1.5 1.78489 1.65667C1.51441 1.7945 1.2945 2.01441 1.15667 2.28489C1 2.59239 1 2.99493 1 3.8V7.825C1 8.63007 1 9.03261 1.15667 9.34011C1.2945 9.61059 1.51441 9.8305 1.78489 9.96833C2.09239 10.125 2.49493 10.125 3.3 10.125ZM3.3 24.5H7.325C8.13007 24.5 8.53261 24.5 8.84011 24.3433C9.11059 24.2055 9.3305 23.9857 9.46833 23.7151C9.625 23.4076 9.625 23.0051 9.625 22.2V18.175C9.625 17.3699 9.625 16.9674 9.46833 16.6599C9.3305 16.3893 9.11059 16.1695 8.84011 16.0317C8.53261 15.875 8.13007 15.875 7.325 15.875H3.3C2.49493 15.875 2.09239 15.875 1.78489 16.0317C1.51441 16.1695 1.2945 16.3893 1.15667 16.6599C1 16.9674 1 17.3699 1 18.175V22.2C1 23.0051 1 23.4076 1.15667 23.7151C1.2945 23.9857 1.51441 24.2055 1.78489 24.3433C2.09239 24.5 2.49493 24.5 3.3 24.5Z" stroke="#000000" stroke-width="2" stroke-linecap="round" stroke-linejoin="round"/>
</svg>
