<svg width="25" height="26" viewBox="0 0 25 26" fill="none" xmlns="http://www.w3.org/2000/svg">
<path d="M11.2876 3.92481H3.28613C2.67981 3.92481 2.09833 4.16567 1.66959 4.5944C1.24086 5.02313 1 5.60462 1 6.21094V22.2139C1 22.8202 1.24086 23.4017 1.66959 23.8304C2.09833 24.2591 2.67981 24.5 3.28613 24.5H19.2891C19.8954 24.5 20.4769 24.2591 20.9056 23.8304C21.3343 23.4017 21.5752 22.8202 21.5752 22.2139V14.2124M19.8606 2.21021C20.3153 1.75547 20.9321 1.5 21.5752 1.5C22.2183 1.5 22.835 1.75547 23.2898 2.21021C23.7445 2.66495 24 3.28171 24 3.92481C24 4.56791 23.7445 5.18467 23.2898 5.63941L12.4307 16.4985L7.8584 17.6416L9.00146 13.0693L19.8606 2.21021Z" stroke="#000000" stroke-width="2" stroke-linecap="round" stroke-linejoin="round"/>
</svg>
