<svg width="800px" height="800px" viewBox="0 0 28 28" fill="none" xmlns="http://www.w3.org/2000/svg">
<path d="M14.2977 19.4982C14.612 19.4982 14.8755 19.3919 15.0881 19.1793C15.3007 18.9667 15.4071 18.7033 15.4071 18.389C15.4071 18.0747 15.3007 17.8113 15.0881 17.5987C14.8755 17.3861 14.612 17.2798 14.2977 17.2798C13.9833 17.2798 13.7198 17.3861 13.5072 17.5987C13.2946 17.8113 13.1883 18.0747 13.1883 18.389C13.1883 18.7033 13.2946 18.9667 13.5072 19.1793C13.7198 19.3919 13.9833 19.4982 14.2977 19.4982ZM13.1883 15.0614H15.4071V8.40608H13.1883V15.0614ZM14.2977 25.0443C12.763 25.0443 11.3208 24.7531 9.97098 24.1708C8.6212 23.5885 7.44708 22.7981 6.44862 21.7998C5.45016 20.8016 4.65971 19.6276 4.07727 18.2781C3.49483 16.9285 3.20361 15.4866 3.20361 13.9522C3.20361 12.4177 3.49483 10.9758 4.07727 9.62621C4.65971 8.27667 5.45016 7.10275 6.44862 6.10445C7.44708 5.10616 8.6212 4.31585 9.97098 3.73351C11.3208 3.15117 12.763 2.86 14.2977 2.86C15.8323 2.86 17.2746 3.15117 18.6243 3.73351C19.9741 4.31585 21.1482 5.10616 22.1467 6.10445C23.1452 7.10275 23.9356 8.27667 24.518 9.62621C25.1005 10.9758 25.3917 12.4177 25.3917 13.9522C25.3917 15.4866 25.1005 16.9285 24.518 18.2781C23.9356 19.6276 23.1452 20.8016 22.1467 21.7998C21.1482 22.7981 19.9741 23.5885 18.6243 24.1708C17.2746 24.7531 15.8323 25.0443 14.2977 25.0443Z" fill="#000000"/>
</svg>
