<!DOCTYPE svg PUBLIC "-//W3C//DTD SVG 1.1//EN" "http://www.w3.org/Graphics/SVG/1.1/DTD/svg11.dtd">
<!-- Uploaded to: SVG Repo, www.svgrepo.com, Transformed by: SVG Repo Mixer Tools -->
<svg fill="#ffffff" width="800px" height="800px" viewBox="0 0 24 24" xmlns="http://www.w3.org/2000/svg" stroke="#ffffff">
<g id="SVGRepo_bgCarrier" stroke-width="0"/>
<g id="SVGRepo_tracerCarrier" stroke-linecap="round" stroke-linejoin="round"/>
<g id="SVGRepo_iconCarrier">
<path d="M15.5 2.25a.75.75 0 01.75-.75h5.5a.75.75 0 01.75.75v5.5a.75.75 0 01-1.5 0V4.06l-6.22 6.22a.75.75 0 11-1.06-1.06L19.94 3h-3.69a.75.75 0 01-.75-.75z"/>
<path d="M2.5 4.25c0-.966.784-1.75 1.75-1.75h8.5a.75.75 0 010 1.5h-8.5a.25.25 0 00-.25.25v15.5c0 .138.112.25.25.25h15.5a.25.25 0 00.25-.25v-8.5a.75.75 0 011.5 0v8.5a1.75 1.75 0 01-1.75 1.75H4.25a1.75 1.75 0 01-1.75-1.75V4.25z"/>
</g>
</svg>