<?xml version="1.0" standalone="no"?>
<!DOCTYPE svg PUBLIC "-//W3C//DTD SVG 20010904//EN"
 "http://www.w3.org/TR/2001/REC-SVG-20010904/DTD/svg10.dtd">
<svg version="1.0" xmlns="http://www.w3.org/2000/svg"
 width="512.000000pt" height="512.000000pt" viewBox="0 0 512.000000 512.000000"
 preserveAspectRatio="xMidYMid meet">

<g transform="translate(0.000000,512.000000) scale(0.100000,-0.100000)"
fill="#FFFFFF" stroke="none">
<path d="M415 3186 c-41 -18 -83 -69 -90 -109 -3 -18 -5 -262 -3 -544 3 -499
4 -512 24 -539 11 -15 33 -37 48 -48 27 -21 38 -21 566 -21 528 0 539 0 566
21 15 11 37 33 48 48 21 27 21 38 21 566 0 528 0 539 -21 566 -11 15 -33 37
-48 48 -27 21 -40 21 -554 23 -423 2 -533 0 -557 -11z"/>
<path d="M2015 3186 c-41 -18 -83 -69 -90 -109 -3 -18 -5 -262 -3 -544 3 -499
4 -512 24 -539 11 -15 33 -37 48 -48 27 -21 38 -21 566 -21 528 0 539 0 566
21 15 11 37 33 48 48 21 27 21 38 21 566 0 528 0 539 -21 566 -11 15 -33 37
-48 48 -27 21 -40 21 -554 23 -423 2 -533 0 -557 -11z"/>
<path d="M3615 3186 c-41 -18 -83 -69 -90 -109 -3 -18 -5 -262 -3 -544 3 -499
4 -512 24 -539 11 -15 33 -37 48 -48 27 -21 38 -21 566 -21 528 0 539 0 566
21 15 11 37 33 48 48 21 27 21 38 21 566 0 528 0 539 -21 566 -11 15 -33 37
-48 48 -27 21 -40 21 -554 23 -423 2 -533 0 -557 -11z"/>
</g>
</svg>
