<svg width="24" height="23" viewBox="0 0 24 23" fill="none" xmlns="http://www.w3.org/2000/svg">
<path d="M13.8166 10.2374H22.9527C23.255 10.2374 23.5 9.99222 23.5 9.6898V0.547619C23.5 0.245196 23.255 0 22.9527 0H20.7637C20.4615 0 20.2165 0.245196 20.2165 0.547619V4.11225C18.129 1.79249 15.0969 0.340893 11.726 0.365399C5.4824 0.41076 0.486753 5.45931 0.500024 11.7071C0.513295 17.9463 5.57183 23 11.81 23C14.7327 23 17.3964 21.8905 19.4036 20.0696C19.6362 19.8586 19.6469 19.4967 19.4249 19.2746L17.8759 17.7245C17.6718 17.5203 17.344 17.5093 17.1279 17.7006C15.7125 18.9538 13.8509 19.7143 11.81 19.7143C7.37409 19.7143 3.78353 16.1221 3.78353 11.6825C3.78353 7.24377 7.37336 3.65079 11.81 3.65079C14.4777 3.65079 16.8393 4.95029 18.2984 6.9517H13.8166C13.5144 6.9517 13.2693 7.1969 13.2693 7.49932V9.6898C13.2693 9.99222 13.5144 10.2374 13.8166 10.2374Z" fill="#000000"/>
</svg>
