<?xml version="1.0" encoding="UTF-8" standalone="no"?>
<!-- Uploaded to: SVG Repo, www.svgrepo.com, Generator: SVG Repo Mixer Tools -->
<svg width="800px" height="800px" viewBox="-4 -4 24 24" fill="none" xmlns="http://www.w3.org/2000/svg">
<path d="M9.26372 7.12168H15.6193C15.8295 7.12168 16 6.95111 16 6.74073V0.380952C16 0.170571 15.8295 0 15.6193 0H14.0965C13.8863 0 13.7158 0.170571 13.7158 0.380952V2.8607C12.2636 1.24695 10.1543 0.237143 7.80937 0.254191C3.46602 0.285746 -0.0092144 3.79778 1.81198e-05 8.1441C0.00924969 12.4844 3.52823 16 7.86781 16C9.90104 16 11.754 15.2282 13.1504 13.9614C13.3121 13.8147 13.3196 13.5629 13.1652 13.4084L12.0876 12.3301C11.9456 12.1881 11.7176 12.1803 11.5672 12.3134C10.5826 13.1853 9.2876 13.7143 7.86781 13.7143C4.78197 13.7143 2.28419 11.2154 2.28419 8.12698C2.28419 5.03914 4.78147 2.53968 7.86781 2.53968C9.7236 2.53968 11.3665 3.44368 12.3815 4.83597H9.26372C9.05347 4.83597 8.88301 5.00654 8.88301 5.21692V6.74073C8.88301 6.95111 9.05347 7.12168 9.26372 7.12168Z" fill="#CCCCCC"/>
</svg>
