<?xml version="1.0" encoding="UTF-8"?>
<!DOCTYPE svg PUBLIC "-//W3C//DTD SVG 1.1//EN" "http://www.w3.org/Graphics/SVG/1.1/DTD/svg11.dtd">
<svg xmlns="http://www.w3.org/2000/svg" version="1.1" width="862px" height="512px" style="shape-rendering:geometricPrecision; text-rendering:geometricPrecision; image-rendering:optimizeQuality; fill-rule:evenodd; clip-rule:evenodd" xmlns:xlink="http://www.w3.org/1999/xlink">
<g><path style="opacity:1" fill="#fefffe" d="M -0.5,-0.5 C 57.8333,-0.5 116.167,-0.5 174.5,-0.5C 174.5,170.167 174.5,340.833 174.5,511.5C 116.167,511.5 57.8333,511.5 -0.5,511.5C -0.5,340.833 -0.5,170.167 -0.5,-0.5 Z"/></g>
<g><path style="opacity:1" fill="#000000" d="M 174.5,-0.5 C 345.167,-0.5 515.833,-0.5 686.5,-0.5C 686.5,170.167 686.5,340.833 686.5,511.5C 515.833,511.5 345.167,511.5 174.5,511.5C 174.5,340.833 174.5,170.167 174.5,-0.5 Z"/></g>
<g><path style="opacity:1" fill="#fefffe" d="M 686.5,-0.5 C 744.833,-0.5 803.167,-0.5 861.5,-0.5C 861.5,170.167 861.5,340.833 861.5,511.5C 803.167,511.5 744.833,511.5 686.5,511.5C 686.5,340.833 686.5,170.167 686.5,-0.5 Z"/></g>
<g><path style="opacity:1" fill="#fcd56a" d="M 454.5,25.5 C 458.403,43.199 458.403,60.8657 454.5,78.5C 453.5,78.5 452.5,78.5 451.5,78.5C 443.087,79.6858 434.754,81.3525 426.5,83.5C 426.666,76.4921 426.5,69.4921 426,62.5C 422.33,55.8242 418.164,49.4909 413.5,43.5C 413.709,42.914 414.043,42.414 414.5,42C 421.242,39.8639 427.909,37.5305 434.5,35C 439.333,29.5 444.167,24 449,18.5C 451.43,20.4221 453.263,22.7554 454.5,25.5 Z"/></g>
<g><path style="opacity:1" fill="#fabe63" d="M 454.5,25.5 C 457.368,28.6879 460.368,31.8546 463.5,35C 470.574,37.7445 477.574,40.5778 484.5,43.5C 479.836,49.4909 475.67,55.8242 472,62.5C 471.5,69.4921 471.334,76.4921 471.5,83.5C 464.646,82.12 457.98,80.4533 451.5,78.5C 452.5,78.5 453.5,78.5 454.5,78.5C 458.403,60.8657 458.403,43.199 454.5,25.5 Z"/></g>
<g><path style="opacity:1" fill="#fdd66b" d="M 610.5,33.5 C 617.659,63.6959 618.326,94.0293 612.5,124.5C 608.51,123.81 604.51,123.643 600.5,124C 589.971,127.132 579.305,129.632 568.5,131.5C 568.622,119.475 568.122,107.475 567,95.5C 560.5,85.8333 554,76.1667 547.5,66.5C 558.685,62.0482 570.018,57.8816 581.5,54C 589.333,44.8333 597.167,35.6667 605,26.5C 606.842,28.8636 608.675,31.1969 610.5,33.5 Z"/></g>
<g><path style="opacity:1" fill="#fbbf64" d="M 610.5,33.5 C 616.262,40.4364 622.262,47.2697 628.5,54C 639.804,58.2679 651.138,62.4346 662.5,66.5C 655.17,76.4903 648.337,86.8236 642,97.5C 641.5,108.828 641.333,120.162 641.5,131.5C 631.625,129.948 621.958,127.614 612.5,124.5C 618.326,94.0293 617.659,63.6959 610.5,33.5 Z"/></g>
<g><path style="opacity:1" fill="#00bef8" d="M 493.5,76.5 C 514.184,100.52 529.184,127.854 538.5,158.5C 524.828,164.841 519.328,175.508 522,190.5C 531.211,213.301 540.711,235.968 550.5,258.5C 549.748,295.507 541.748,330.84 526.5,364.5C 414.167,364.5 301.833,364.5 189.5,364.5C 189.333,269.499 189.5,174.499 190,79.5C 190.833,78.6667 191.667,77.8333 192.5,77C 265.499,76.5 338.499,76.3333 411.5,76.5C 410.872,82.7624 411.705,88.7624 414,94.5C 416.54,97.3534 419.707,99.0201 423.5,99.5C 431.943,97.2643 440.443,95.2643 449,93.5C 457.112,95.7363 465.278,97.7363 473.5,99.5C 478.704,99.3188 482.538,96.9855 485,92.5C 486.271,87.2461 486.771,81.9127 486.5,76.5C 488.833,76.5 491.167,76.5 493.5,76.5 Z"/></g>
<g><path style="opacity:1" fill="#07a7ef" d="M 493.5,76.5 C 508.079,76.1763 522.579,76.5096 537,77.5C 542.333,85.5 547.667,93.5 553,101.5C 553.333,112.833 553.667,124.167 554,135.5C 557.032,145.104 563.532,148.604 573.5,146C 583.949,143.263 594.449,140.763 605,138.5C 613.101,140.734 621.268,142.734 629.5,144.5C 629.832,193.336 629.499,242.003 628.5,290.5C 609.62,250.405 590.453,210.405 571,170.5C 562.645,159.661 551.812,155.661 538.5,158.5C 529.184,127.854 514.184,100.52 493.5,76.5 Z"/></g>
<g><path style="opacity:1" fill="#020506" d="M 316.5,107.5 C 306.833,107.5 297.167,107.5 287.5,107.5C 287.5,117.167 287.5,126.833 287.5,136.5C 286.488,139.853 284.154,141.52 280.5,141.5C 277.426,141.55 275.259,140.217 274,137.5C 273.333,123.833 273.333,110.167 274,96.5C 275.214,94.9512 276.714,93.7845 278.5,93C 291.167,92.3333 303.833,92.3333 316.5,93C 324.467,97.9734 324.467,102.807 316.5,107.5 Z"/></g>
<g><path style="opacity:1" fill="#005974" d="M 316.5,107.5 C 307.348,108.494 298.015,108.827 288.5,108.5C 288.827,118.015 288.494,127.348 287.5,136.5C 287.5,126.833 287.5,117.167 287.5,107.5C 297.167,107.5 306.833,107.5 316.5,107.5 Z"/></g>
<g><path style="opacity:1" fill="#030504" d="M 311.5,124.5 C 371.501,124.333 431.501,124.5 491.5,125C 493.624,126.122 495.457,127.622 497,129.5C 497.667,189.5 497.667,249.5 497,309.5C 496.215,311.286 495.049,312.786 493.5,314C 432.916,315.659 372.249,315.992 311.5,315C 310.333,313.833 309.167,312.667 308,311.5C 306.341,250.916 306.008,190.249 307,129.5C 308.707,127.963 310.207,126.296 311.5,124.5 Z"/></g>
<g><path style="opacity:1" fill="#c7eefd" d="M 406.5,139.5 C 422.388,158.423 434.055,179.756 441.5,203.5C 439.407,204.045 437.407,204.878 435.5,206C 421.319,220.347 406.986,234.514 392.5,248.5C 380.985,237.818 369.985,226.651 359.5,215C 353.395,210.353 346.729,209.353 339.5,212C 333.667,217.833 327.833,223.667 322,229.5C 321.5,199.502 321.333,169.502 321.5,139.5C 349.833,139.5 378.167,139.5 406.5,139.5 Z"/></g>
<g><path style="opacity:1" fill="#98e5fb" d="M 406.5,139.5 C 431.833,139.5 457.167,139.5 482.5,139.5C 482.667,170.835 482.5,202.168 482,233.5C 472.833,224.333 463.667,215.167 454.5,206C 450.414,203.947 446.08,203.113 441.5,203.5C 434.055,179.756 422.388,158.423 406.5,139.5 Z"/></g>
<g><path style="opacity:1" fill="#022332" d="M 629.5,144.5 C 630.665,193.665 630.832,242.998 630,292.5C 629.283,291.956 628.783,291.289 628.5,290.5C 629.499,242.003 629.832,193.336 629.5,144.5 Z"/></g>
<g><path style="opacity:1" fill="#f8bd63" d="M 566.5,219.5 C 563.627,212.082 560.46,204.749 557,197.5C 554.065,190.104 549.565,183.937 543.5,179C 541.655,177.872 539.655,177.372 537.5,177.5C 542.294,171.856 547.96,171.023 554.5,175C 556,176.5 557.5,178 559,179.5C 564.909,190.818 570.409,202.318 575.5,214C 572.835,216.335 569.835,218.168 566.5,219.5 Z"/></g>
<g><path style="opacity:1" fill="#fcd56a" d="M 537.5,177.5 C 539.655,177.372 541.655,177.872 543.5,179C 549.565,183.937 554.065,190.104 557,197.5C 560.46,204.749 563.627,212.082 566.5,219.5C 562.073,221.212 557.74,223.212 553.5,225.5C 547.346,213.903 541.846,201.903 537,189.5C 536.238,185.413 536.404,181.413 537.5,177.5 Z"/></g>
<g><path style="opacity:1" fill="#7ed060" d="M 446.5,219.5 C 453.11,246.483 453.11,273.483 446.5,300.5C 432.036,287.205 417.703,273.705 403.5,260C 416.471,246.029 429.804,232.362 443.5,219C 444.749,218.26 445.749,218.427 446.5,219.5 Z"/></g>
<g><path style="opacity:1" fill="#67c943" d="M 446.5,219.5 C 458.465,230.965 470.298,242.631 482,254.5C 482.5,269.83 482.667,285.163 482.5,300.5C 470.5,300.5 458.5,300.5 446.5,300.5C 453.11,273.483 453.11,246.483 446.5,219.5 Z"/></g>
<g><path style="opacity:1" fill="#7fd160" d="M 357.5,235.5 C 365.532,256.386 369.199,278.053 368.5,300.5C 352.833,300.5 337.167,300.5 321.5,300.5C 321.333,283.83 321.5,267.163 322,250.5C 330.348,241.986 338.848,233.652 347.5,225.5C 351.188,228.521 354.521,231.854 357.5,235.5 Z"/></g>
<g><path style="opacity:1" fill="#778a95" d="M 664.5,433.5 C 665.01,427.928 664.177,422.595 662,417.5C 633.333,357.5 604.667,297.5 576,237.5C 575.502,235.456 574.335,234.122 572.5,233.5C 575.276,231.608 578.276,229.941 581.5,228.5C 611.495,289.16 640.995,350.16 670,411.5C 673.307,420.24 671.473,427.573 664.5,433.5 Z"/></g>
<g><path style="opacity:1" fill="#8b99a5" d="M 572.5,233.5 C 574.335,234.122 575.502,235.456 576,237.5C 604.667,297.5 633.333,357.5 662,417.5C 664.177,422.595 665.01,427.928 664.5,433.5C 655.618,438.717 648.118,437.05 642,428.5C 614.295,365.593 586.462,302.759 558.5,240C 563.038,237.565 567.704,235.398 572.5,233.5 Z"/></g>
<g><path style="opacity:1" fill="#67c843" d="M 357.5,235.5 C 379.196,257.197 401.196,278.53 423.5,299.5C 405.341,300.497 387.008,300.83 368.5,300.5C 369.199,278.053 365.532,256.386 357.5,235.5 Z"/></g>
<g><path style="opacity:1" fill="#07a7ef" d="M 550.5,258.5 C 565.988,293.651 581.654,328.818 597.5,364C 573.836,364.5 550.169,364.667 526.5,364.5C 541.748,330.84 549.748,295.507 550.5,258.5 Z"/></g>
<g><path style="opacity:1" fill="#020406" d="M 487.5,332.5 C 497.167,332.5 506.833,332.5 516.5,332.5C 516.5,322.833 516.5,313.167 516.5,303.5C 517.348,300.155 519.515,298.488 523,298.5C 526.274,298.301 528.607,299.634 530,302.5C 530.964,316.594 530.631,330.594 529,344.5C 528.097,345.701 526.931,346.535 525.5,347C 512.833,347.667 500.167,347.667 487.5,347C 482.776,344.565 481.276,340.731 483,335.5C 484.129,333.859 485.629,332.859 487.5,332.5 Z"/></g>
<g><path style="opacity:1" fill="#254319" d="M 423.5,299.5 C 424.043,299.56 424.376,299.893 424.5,300.5C 390.002,301.83 355.669,301.83 321.5,300.5C 337.167,300.5 352.833,300.5 368.5,300.5C 387.008,300.83 405.341,300.497 423.5,299.5 Z"/></g>
<g><path style="opacity:1" fill="#006685" d="M 516.5,303.5 C 516.5,313.167 516.5,322.833 516.5,332.5C 506.833,332.5 497.167,332.5 487.5,332.5C 496.652,331.506 505.985,331.173 515.5,331.5C 515.173,321.985 515.506,312.652 516.5,303.5 Z"/></g>
<g><path style="opacity:1" fill="#c7eefd" d="M 518.5,379.5 C 512.999,389.173 506.999,398.506 500.5,407.5C 398.5,407.5 296.5,407.5 194.5,407.5C 192.629,407.141 191.129,406.141 190,404.5C 189.5,396.173 189.334,387.84 189.5,379.5C 299.167,379.5 408.833,379.5 518.5,379.5 Z"/></g>
<g><path style="opacity:1" fill="#98e5fb" d="M 518.5,379.5 C 547.174,379.167 575.841,379.5 604.5,380.5C 608.179,389.188 611.846,397.855 615.5,406.5C 577.337,407.499 539.004,407.832 500.5,407.5C 506.999,398.506 512.999,389.173 518.5,379.5 Z"/></g>
<g><path style="opacity:1" fill="#3f4f54" d="M 615.5,406.5 C 616.043,406.56 616.376,406.893 616.5,407.5C 475.667,408.833 335.001,408.833 194.5,407.5C 296.5,407.5 398.5,407.5 500.5,407.5C 539.004,407.832 577.337,407.499 615.5,406.5 Z"/></g>
<g><path style="opacity:1" fill="#818181" d="M 359.5,423.5 C 359.5,423.167 359.5,422.833 359.5,422.5C 393.167,422.5 426.833,422.5 460.5,422.5C 460.5,433.167 460.5,443.833 460.5,454.5C 460.167,454.5 459.833,454.5 459.5,454.5C 459.5,444.167 459.5,433.833 459.5,423.5C 426.167,423.5 392.833,423.5 359.5,423.5 Z"/></g>
<g><path style="opacity:1" fill="#bebebe" d="M 359.5,423.5 C 392.833,423.5 426.167,423.5 459.5,423.5C 459.5,433.833 459.5,444.167 459.5,454.5C 455.167,454.5 450.833,454.5 446.5,454.5C 446.666,449.156 446.499,443.823 446,438.5C 444.829,437.107 443.329,436.273 441.5,436C 414.169,435.5 386.835,435.333 359.5,435.5C 359.5,431.5 359.5,427.5 359.5,423.5 Z"/></g>
<g><path style="opacity:1" fill="#cdcdcd" d="M 359.5,435.5 C 386.835,435.333 414.169,435.5 441.5,436C 443.329,436.273 444.829,437.107 446,438.5C 446.499,443.823 446.666,449.156 446.5,454.5C 417.5,454.5 388.5,454.5 359.5,454.5C 359.5,448.167 359.5,441.833 359.5,435.5 Z"/></g>
<g><path style="opacity:1" fill="#616161" d="M 359.5,422.5 C 359.5,422.833 359.5,423.167 359.5,423.5C 359.5,427.5 359.5,431.5 359.5,435.5C 359.5,441.833 359.5,448.167 359.5,454.5C 388.5,454.5 417.5,454.5 446.5,454.5C 450.833,454.5 455.167,454.5 459.5,454.5C 459.833,454.5 460.167,454.5 460.5,454.5C 426.671,455.498 392.671,455.832 358.5,455.5C 358.172,444.321 358.505,433.321 359.5,422.5 Z"/></g>
<g><path style="opacity:1" fill="#e1e1e1" d="M 297.5,470.5 C 353.501,470.333 409.501,470.5 465.5,471C 470.9,477.903 472.9,485.736 471.5,494.5C 408.833,494.5 346.167,494.5 283.5,494.5C 281.693,484.964 284.693,477.464 292.5,472C 294.025,470.991 295.692,470.491 297.5,470.5 Z"/></g>
<g><path style="opacity:1" fill="#bababa" d="M 297.5,470.5 C 371.666,469.334 445.999,469.168 520.5,470C 533.128,473.833 538.128,482.333 535.5,495.5C 451.332,495.833 367.332,495.499 283.5,494.5C 346.167,494.5 408.833,494.5 471.5,494.5C 472.9,485.736 470.9,477.903 465.5,471C 409.501,470.5 353.501,470.333 297.5,470.5 Z"/></g>
</svg>
