<svg width="24" height="23" viewBox="0 0 24 23" fill="none" xmlns="http://www.w3.org/2000/svg">
<path d="M10.1834 10.2374H1.04726C0.745035 10.2374 0.5 9.99222 0.5 9.6898V0.547619C0.5 0.245196 0.745035 0 1.04726 0H3.23629C3.53851 0 3.78355 0.245196 3.78355 0.547619V4.11225C5.87102 1.79249 8.90315 0.340893 12.274 0.365399C18.5176 0.41076 23.5132 5.45931 23.5 11.7071C23.4867 17.9463 18.4282 23 12.19 23C9.26726 23 6.60361 21.8905 4.59636 20.0696C4.36382 19.8586 4.35311 19.4967 4.57507 19.2746L6.12412 17.7245C6.32816 17.5203 6.65597 17.5093 6.87209 17.7006C8.28748 18.9538 10.1491 19.7143 12.19 19.7143C16.6259 19.7143 20.2165 16.1221 20.2165 11.6825C20.2165 7.24377 16.6266 3.65079 12.19 3.65079C9.52232 3.65079 7.16072 4.95029 5.70164 6.9517H10.1834C10.4856 6.9517 10.7307 7.1969 10.7307 7.49932V9.6898C10.7307 9.99222 10.4856 10.2374 10.1834 10.2374Z" fill="#CCCCCC"/>
</svg>
