<?xml version="1.0" encoding="UTF-8" standalone="no"?>
<!-- Uploaded to: SVG Repo, www.svgrepo.com, Generator: SVG Repo Mixer Tools -->
<svg width="800px" height="800px" viewBox="-4 -4 24 24" fill="none" xmlns="http://www.w3.org/2000/svg">
<path d="M6.73628 7.12168H0.380701C0.170459 7.12168 0 6.95111 0 6.74073V0.380952C0 0.170571 0.170459 0 0.380701 0H1.90351C2.11375 0 2.28421 0.170571 2.28421 0.380952V2.8607C3.73636 1.24695 5.84567 0.237143 8.19063 0.254191C12.534 0.285746 16.0092 3.79778 16 8.1441C15.9908 12.4844 12.4718 16 8.13219 16C6.09896 16 4.24599 15.2282 2.84964 13.9614C2.68788 13.8147 2.68042 13.5629 2.83483 13.4084L3.91243 12.3301C4.05437 12.1881 4.28241 12.1803 4.43276 12.3134C5.41738 13.1853 6.7124 13.7143 8.13219 13.7143C11.218 13.7143 13.7158 11.2154 13.7158 8.12698C13.7158 5.03914 11.2185 2.53968 8.13219 2.53968C6.2764 2.53968 4.63355 3.44368 3.61853 4.83597H6.73628C6.94653 4.83597 7.11699 5.00654 7.11699 5.21692V6.74073C7.11699 6.95111 6.94653 7.12168 6.73628 7.12168Z" fill="#CCCCCC"/>
</svg>
