<svg width="800px" height="800px" viewBox="0 0 28 28" fill="none" xmlns="http://www.w3.org/2000/svg">
<path d="M14.238 10.6245V15.0614M14.238 19.4982H14.2491M12.341 4.92315L2.94431 20.6074C2.75058 20.9429 2.64807 21.3232 2.64698 21.7106C2.6459 22.0979 2.74628 22.4788 2.93813 22.8154C3.12999 23.1519 3.40663 23.4323 3.74054 23.6288C4.07445 23.8252 4.45399 23.9308 4.8414 23.9351H23.6347C24.0221 23.9308 24.4016 23.8252 24.7356 23.6288C25.0695 23.4323 25.3461 23.1519 25.538 22.8154C25.7298 22.4788 25.8302 22.0979 25.8291 21.7106C25.828 21.3232 25.7255 20.9429 25.5318 20.6074L16.1351 4.92315C15.9374 4.59715 15.6589 4.32763 15.3266 4.14058C14.9943 3.95352 14.6194 3.85526 14.238 3.85526C13.8567 3.85526 13.4818 3.95352 13.1495 4.14058C12.8172 4.32763 12.5387 4.59715 12.341 4.92315Z" stroke="#FEF7FF" stroke-width="2" stroke-linecap="round" stroke-linejoin="round"/>
</svg>
